<mxfile host="Electron" modified="2024-09-29T21:18:54.964Z" agent="Mozilla/5.0 (Macintosh; Intel Mac OS X 10_15_7) AppleWebKit/537.36 (KHTML, like Gecko) draw.io/21.6.1 Chrome/112.0.5615.204 Electron/24.6.1 Safari/537.36" etag="q23xh7fLpnTKXIBGyMha" version="21.6.1" type="device">
  <diagram name="Page-1" id="Isclba1_VjMlVpN9_DU4">
    <mxGraphModel dx="1114" dy="769" grid="1" gridSize="10" guides="1" tooltips="1" connect="1" arrows="1" fold="1" page="1" pageScale="1" pageWidth="1169" pageHeight="827" math="0" shadow="0">
      <root>
        <mxCell id="0" />
        <mxCell id="1" parent="0" />
        <mxCell id="1CY7_XUAnjwE_bjmkler-7" value="" style="rounded=1;whiteSpace=wrap;html=1;" vertex="1" parent="1">
          <mxGeometry x="460" y="300" width="230" height="280" as="geometry" />
        </mxCell>
        <mxCell id="1CY7_XUAnjwE_bjmkler-1" value="" style="rounded=1;whiteSpace=wrap;html=1;" vertex="1" parent="1">
          <mxGeometry x="490" y="350" width="170" height="90" as="geometry" />
        </mxCell>
        <mxCell id="1CY7_XUAnjwE_bjmkler-30" style="edgeStyle=orthogonalEdgeStyle;rounded=0;orthogonalLoop=1;jettySize=auto;html=1;exitX=1;exitY=0.5;exitDx=0;exitDy=0;entryX=0.75;entryY=0;entryDx=0;entryDy=0;" edge="1" parent="1" source="1CY7_XUAnjwE_bjmkler-2" target="1CY7_XUAnjwE_bjmkler-3">
          <mxGeometry relative="1" as="geometry">
            <Array as="points">
              <mxPoint x="670" y="395" />
              <mxPoint x="670" y="460" />
              <mxPoint x="608" y="460" />
            </Array>
          </mxGeometry>
        </mxCell>
        <mxCell id="1CY7_XUAnjwE_bjmkler-2" value="PythonAstREPLTool" style="rounded=0;whiteSpace=wrap;html=1;" vertex="1" parent="1">
          <mxGeometry x="510" y="370" width="130" height="50" as="geometry" />
        </mxCell>
        <mxCell id="1CY7_XUAnjwE_bjmkler-19" style="edgeStyle=orthogonalEdgeStyle;rounded=0;orthogonalLoop=1;jettySize=auto;html=1;exitX=0;exitY=0.75;exitDx=0;exitDy=0;" edge="1" parent="1" source="1CY7_XUAnjwE_bjmkler-3" target="1CY7_XUAnjwE_bjmkler-14">
          <mxGeometry relative="1" as="geometry" />
        </mxCell>
        <mxCell id="1CY7_XUAnjwE_bjmkler-20" style="edgeStyle=orthogonalEdgeStyle;rounded=0;orthogonalLoop=1;jettySize=auto;html=1;exitX=0.5;exitY=0;exitDx=0;exitDy=0;entryX=0.5;entryY=1;entryDx=0;entryDy=0;" edge="1" parent="1" source="1CY7_XUAnjwE_bjmkler-3" target="1CY7_XUAnjwE_bjmkler-1">
          <mxGeometry relative="1" as="geometry" />
        </mxCell>
        <mxCell id="1CY7_XUAnjwE_bjmkler-26" style="edgeStyle=orthogonalEdgeStyle;rounded=0;orthogonalLoop=1;jettySize=auto;html=1;exitX=1;exitY=0.25;exitDx=0;exitDy=0;entryX=0;entryY=0.25;entryDx=0;entryDy=0;" edge="1" parent="1" source="1CY7_XUAnjwE_bjmkler-3" target="1CY7_XUAnjwE_bjmkler-25">
          <mxGeometry relative="1" as="geometry" />
        </mxCell>
        <mxCell id="1CY7_XUAnjwE_bjmkler-3" value="LLM" style="rounded=0;whiteSpace=wrap;html=1;" vertex="1" parent="1">
          <mxGeometry x="510" y="500" width="130" height="60" as="geometry" />
        </mxCell>
        <mxCell id="1CY7_XUAnjwE_bjmkler-4" style="edgeStyle=orthogonalEdgeStyle;rounded=0;orthogonalLoop=1;jettySize=auto;html=1;exitX=0.5;exitY=1;exitDx=0;exitDy=0;" edge="1" parent="1" source="1CY7_XUAnjwE_bjmkler-1" target="1CY7_XUAnjwE_bjmkler-1">
          <mxGeometry relative="1" as="geometry" />
        </mxCell>
        <mxCell id="1CY7_XUAnjwE_bjmkler-5" value="&lt;b&gt;&lt;font style=&quot;font-size: 14px;&quot;&gt;Tools&lt;/font&gt;&lt;/b&gt;" style="text;html=1;strokeColor=none;fillColor=none;align=center;verticalAlign=middle;whiteSpace=wrap;rounded=0;" vertex="1" parent="1">
          <mxGeometry x="540" y="320" width="60" height="30" as="geometry" />
        </mxCell>
        <mxCell id="1CY7_XUAnjwE_bjmkler-15" style="edgeStyle=orthogonalEdgeStyle;rounded=0;orthogonalLoop=1;jettySize=auto;html=1;entryX=0;entryY=0.5;entryDx=0;entryDy=0;" edge="1" parent="1" source="1CY7_XUAnjwE_bjmkler-6" target="1CY7_XUAnjwE_bjmkler-13">
          <mxGeometry relative="1" as="geometry" />
        </mxCell>
        <mxCell id="1CY7_XUAnjwE_bjmkler-6" value="User" style="shape=umlActor;verticalLabelPosition=top;verticalAlign=bottom;html=1;outlineConnect=0;labelPosition=center;align=center;" vertex="1" parent="1">
          <mxGeometry x="70" y="384" width="30" height="60" as="geometry" />
        </mxCell>
        <mxCell id="1CY7_XUAnjwE_bjmkler-8" value="&lt;b&gt;&lt;font style=&quot;font-size: 14px;&quot;&gt;Pandas Dataframe Agent&lt;/font&gt;&lt;/b&gt;" style="text;html=1;strokeColor=none;fillColor=none;align=center;verticalAlign=middle;whiteSpace=wrap;rounded=0;" vertex="1" parent="1">
          <mxGeometry x="480" y="270" width="190" height="30" as="geometry" />
        </mxCell>
        <mxCell id="1CY7_XUAnjwE_bjmkler-10" style="edgeStyle=orthogonalEdgeStyle;rounded=0;orthogonalLoop=1;jettySize=auto;html=1;entryX=1;entryY=0.25;entryDx=0;entryDy=0;" edge="1" parent="1" source="1CY7_XUAnjwE_bjmkler-9" target="1CY7_XUAnjwE_bjmkler-7">
          <mxGeometry relative="1" as="geometry" />
        </mxCell>
        <mxCell id="1CY7_XUAnjwE_bjmkler-9" value="GoT Data&lt;br&gt;&lt;i&gt;(CSV File)&lt;/i&gt;" style="rounded=1;whiteSpace=wrap;html=1;" vertex="1" parent="1">
          <mxGeometry x="800" y="300" width="120" height="60" as="geometry" />
        </mxCell>
        <mxCell id="1CY7_XUAnjwE_bjmkler-17" style="edgeStyle=orthogonalEdgeStyle;rounded=0;orthogonalLoop=1;jettySize=auto;html=1;entryX=0;entryY=0.25;entryDx=0;entryDy=0;" edge="1" parent="1" source="1CY7_XUAnjwE_bjmkler-13" target="1CY7_XUAnjwE_bjmkler-3">
          <mxGeometry relative="1" as="geometry" />
        </mxCell>
        <mxCell id="1CY7_XUAnjwE_bjmkler-13" value="User Query" style="rounded=1;whiteSpace=wrap;html=1;" vertex="1" parent="1">
          <mxGeometry x="230" y="320" width="120" height="60" as="geometry" />
        </mxCell>
        <mxCell id="1CY7_XUAnjwE_bjmkler-16" style="edgeStyle=orthogonalEdgeStyle;rounded=0;orthogonalLoop=1;jettySize=auto;html=1;" edge="1" parent="1" source="1CY7_XUAnjwE_bjmkler-14" target="1CY7_XUAnjwE_bjmkler-6">
          <mxGeometry relative="1" as="geometry" />
        </mxCell>
        <mxCell id="1CY7_XUAnjwE_bjmkler-14" value="Response" style="rounded=1;whiteSpace=wrap;html=1;" vertex="1" parent="1">
          <mxGeometry x="231" y="515" width="120" height="60" as="geometry" />
        </mxCell>
        <mxCell id="1CY7_XUAnjwE_bjmkler-27" style="edgeStyle=orthogonalEdgeStyle;rounded=0;orthogonalLoop=1;jettySize=auto;html=1;exitX=0;exitY=0.75;exitDx=0;exitDy=0;entryX=1;entryY=0.75;entryDx=0;entryDy=0;dashed=1;" edge="1" parent="1" source="1CY7_XUAnjwE_bjmkler-25" target="1CY7_XUAnjwE_bjmkler-3">
          <mxGeometry relative="1" as="geometry" />
        </mxCell>
        <mxCell id="1CY7_XUAnjwE_bjmkler-25" value="Open AI&lt;br&gt;Server" style="rounded=1;whiteSpace=wrap;html=1;" vertex="1" parent="1">
          <mxGeometry x="800" y="500" width="120" height="60" as="geometry" />
        </mxCell>
      </root>
    </mxGraphModel>
  </diagram>
</mxfile>
